<?xml version="1.0" encoding="UTF-8" standalone="no"?>
<!DOCTYPE svg PUBLIC "-//W3C//DTD SVG 1.1//EN" "http://www.w3.org/Graphics/SVG/1.1/DTD/svg11.dtd">
<svg width="100%" height="100%" viewBox="0 0 7087 5398" version="1.1" xmlns="http://www.w3.org/2000/svg" xmlns:xlink="http://www.w3.org/1999/xlink" xml:space="preserve" xmlns:serif="http://www.serif.com/" style="fill-rule:evenodd;clip-rule:evenodd;stroke-linecap:round;stroke-linejoin:round;stroke-miterlimit:1.5;">
    <g transform="matrix(1,0,0,1,1476.38,354.331)">
        <path d="M1594.49,0L1594.49,-117.32L1476.38,-118.11L1476.38,-70.866L1358.27,-70.866L1358.27,-117.32L1240.16,-117.32L1240.16,-70.866L1122.05,-70.866L1122.05,-117.32L1003.94,-117.32L1003.94,-70.866L885.827,-70.866L885.827,-118.11L767.717,-117.32L767.717,-70.866L649.606,-70.866L649.606,-117.32L531.496,-117.32L531.496,-70.866L413.386,-70.866L413.386,-118.11L295.276,-118.11L295.276,0L342.52,0L342.52,118.11L295.276,118.11L295.276,236.22L342.52,236.22L342.52,355.121L295.276,354.331L295.276,472.441L342.52,472.441L342.52,590.551L295.276,590.551L295.276,708.661L342.52,708.661L342.52,826.772L295.276,826.772L295.276,944.882L342.52,944.882L342.52,1062.99L295.276,1062.99L295.276,1181.1L413.386,1181.1L413.386,1133.86L531.496,1133.86L531.496,1181.1L649.606,1181.1L649.606,1133.86L767.717,1133.86L767.717,1181.1L885.827,1181.1L885.827,1133.86L1003.94,1133.86L1003.94,1181.1L1122.05,1181.1L1122.05,1133.86L1240.16,1133.86L1240.16,1181.1L1358.27,1181.1L1358.27,1133.86L1476.38,1133.86L1476.38,1181.1L1594.49,1181.1L1594.49,1062.99L1547.24,1062.99L1547.24,944.882L1594.49,944.882L1594.49,826.772L1547.24,826.772L1547.24,708.661L1594.49,708.661L1594.49,590.551L1547.24,590.551L1547.24,472.441L1594.49,472.441L1594.49,355.121L1547.24,355.121L1547.24,236.22L1594.49,236.22L1594.49,118.11L1547.24,118.11L1547.24,0L1594.49,0Z" style="fill:none;stroke:rgb(255,0,0);stroke-width:3.75px;"/>
    </g>
    <g transform="matrix(1,0,0,1,1476.38,1759.84)">
        <path d="M1594.49,0L1594.49,-117.32L1476.38,-118.11L1476.38,-70.866L1358.27,-70.866L1358.27,-117.32L1240.16,-117.32L1240.16,-70.866L1122.05,-70.866L1122.05,-117.32L1003.94,-117.32L1003.94,-70.866L885.827,-70.866L885.827,-118.11L767.717,-117.32L767.717,-70.866L649.606,-70.866L649.606,-117.32L531.496,-117.32L531.496,-70.866L413.386,-70.866L413.386,-118.11L295.276,-118.11L295.276,0L342.52,0L342.52,118.11L295.276,118.11L295.276,236.22L342.52,236.22L342.52,355.121L295.276,354.331L295.276,472.441L342.52,472.441L342.52,590.551L295.276,590.551L295.276,708.661L342.52,708.661L342.52,826.772L295.276,826.772L295.276,944.882L342.52,944.882L342.52,1062.99L295.276,1062.99L295.276,1181.1L413.386,1181.1L413.386,1133.86L531.496,1133.86L531.496,1181.1L649.606,1181.1L649.606,1133.86L767.717,1133.86L767.717,1181.1L885.827,1181.1L885.827,1133.86L1003.94,1133.86L1003.94,1181.1L1122.05,1181.1L1122.05,1133.86L1240.16,1133.86L1240.16,1181.1L1358.27,1181.1L1358.27,1133.86L1476.38,1133.86L1476.38,1181.1L1594.49,1181.1L1594.49,1062.99L1547.24,1062.99L1547.24,944.882L1594.49,944.882L1594.49,826.772L1547.24,826.772L1547.24,708.661L1594.49,708.661L1594.49,590.551L1547.24,590.551L1547.24,472.441L1594.49,472.441L1594.49,355.121L1547.24,355.121L1547.24,236.22L1594.49,236.22L1594.49,118.11L1547.24,118.11L1547.24,0L1594.49,0Z" style="fill:none;stroke:rgb(255,0,0);stroke-width:3.75px;"/>
    </g>
    <g transform="matrix(1,0,0,1,236.22,2.27374e-13)">
        <path d="M23.622,354.331L70.866,354.331L70.866,283.465L188.976,283.465L188.976,236.22L295.276,236.22L295.276,283.465L413.386,283.465L413.386,236.22L531.496,236.22L531.496,283.465L661.417,283.465L661.417,354.331L708.661,354.331L708.661,472.441L661.417,472.441L661.417,590.551L708.661,590.551L708.661,708.661L661.417,708.661L661.417,826.772L708.661,826.772L708.661,944.882L661.417,944.882L661.417,1062.99L708.661,1062.99L708.661,1181.1L661.417,1181.1L661.417,1299.21L708.661,1299.21L708.661,1417.32L661.417,1417.32L661.417,1535.43L531.496,1535.43L531.496,1488.19L413.386,1488.19L413.386,1535.43L295.276,1535.43L295.276,1488.19L177.165,1488.19L177.165,1535.43L70.866,1535.43L70.866,1417.32L23.622,1417.32L23.622,1299.21L70.866,1299.21L70.866,1181.1L23.622,1181.1L23.622,1062.99L70.866,1062.99L70.866,944.882L23.622,944.882L23.622,826.772L70.866,826.772L70.866,708.661L23.622,708.661L23.622,590.551L70.866,590.551L70.866,472.441L23.622,472.441L23.622,354.331Z" style="fill:none;stroke:rgb(255,0,0);stroke-width:3.75px;"/>
    </g>
    <g transform="matrix(1,0,0,1,980.315,2.27374e-13)">
        <path d="M23.622,354.331L70.866,354.331L70.866,283.465L188.976,283.465L188.976,236.22L295.276,236.22L295.276,283.465L413.386,283.465L413.386,236.22L531.496,236.22L531.496,283.465L661.417,283.465L661.417,354.331L708.661,354.331L708.661,472.441L661.417,472.441L661.417,590.551L708.661,590.551L708.661,708.661L661.417,708.661L661.417,826.772L708.661,826.772L708.661,944.882L661.417,944.882L661.417,1062.99L708.661,1062.99L708.661,1181.1L661.417,1181.1L661.417,1299.21L708.661,1299.21L708.661,1417.32L661.417,1417.32L661.417,1535.43L531.496,1535.43L531.496,1488.19L413.386,1488.19L413.386,1535.43L295.276,1535.43L295.276,1488.19L177.165,1488.19L177.165,1535.43L70.866,1535.43L70.866,1417.32L23.622,1417.32L23.622,1299.21L70.866,1299.21L70.866,1181.1L23.622,1181.1L23.622,1062.99L70.866,1062.99L70.866,944.882L23.622,944.882L23.622,826.772L70.866,826.772L70.866,708.661L23.622,708.661L23.622,590.551L70.866,590.551L70.866,472.441L23.622,472.441L23.622,354.331Z" style="fill:none;stroke:rgb(255,0,0);stroke-width:3.75px;"/>
    </g>
    <g transform="matrix(1,0,0,1,980.315,1405.51)">
        <path d="M23.622,354.331L70.866,354.331L70.866,283.465L188.976,283.465L188.976,236.22L295.276,236.22L295.276,283.465L413.386,283.465L413.386,236.22L531.496,236.22L531.496,283.465L661.417,283.465L661.417,354.331L708.661,354.331L708.661,472.441L661.417,472.441L661.417,590.551L708.661,590.551L708.661,708.661L661.417,708.661L661.417,826.772L708.661,826.772L708.661,944.882L661.417,944.882L661.417,1062.99L708.661,1062.99L708.661,1181.1L661.417,1181.1L661.417,1299.21L708.661,1299.21L708.661,1417.32L661.417,1417.32L661.417,1535.43L531.496,1535.43L531.496,1488.19L413.386,1488.19L413.386,1535.43L295.276,1535.43L295.276,1488.19L177.165,1488.19L177.165,1535.43L70.866,1535.43L70.866,1417.32L23.622,1417.32L23.622,1299.21L70.866,1299.21L70.866,1181.1L23.622,1181.1L23.622,1062.99L70.866,1062.99L70.866,944.882L23.622,944.882L23.622,826.772L70.866,826.772L70.866,708.661L23.622,708.661L23.622,590.551L70.866,590.551L70.866,472.441L23.622,472.441L23.622,354.331Z" style="fill:none;stroke:rgb(255,0,0);stroke-width:3.75px;"/>
    </g>
    <g transform="matrix(1,0,0,1,236.22,1405.51)">
        <path d="M23.622,354.331L70.866,354.331L70.866,283.465L188.976,283.465L188.976,236.22L295.276,236.22L295.276,283.465L413.386,283.465L413.386,236.22L531.496,236.22L531.496,283.465L661.417,283.465L661.417,354.331L708.661,354.331L708.661,472.441L661.417,472.441L661.417,590.551L708.661,590.551L708.661,708.661L661.417,708.661L661.417,826.772L708.661,826.772L708.661,944.882L661.417,944.882L661.417,1062.99L708.661,1062.99L708.661,1181.1L661.417,1181.1L661.417,1299.21L708.661,1299.21L708.661,1417.32L661.417,1417.32L661.417,1535.43L531.496,1535.43L531.496,1488.19L413.386,1488.19L413.386,1535.43L295.276,1535.43L295.276,1488.19L177.165,1488.19L177.165,1535.43L70.866,1535.43L70.866,1417.32L23.622,1417.32L23.622,1299.21L70.866,1299.21L70.866,1181.1L23.622,1181.1L23.622,1062.99L70.866,1062.99L70.866,944.882L23.622,944.882L23.622,826.772L70.866,826.772L70.866,708.661L23.622,708.661L23.622,590.551L70.866,590.551L70.866,472.441L23.622,472.441L23.622,354.331Z" style="fill:none;stroke:rgb(255,0,0);stroke-width:3.75px;"/>
    </g>
    <g transform="matrix(1,0,0,1,-967.947,47.5228)">
        <circle cx="2302.87" cy="838.304" r="176.887" style="fill:none;stroke:rgb(255,0,0);stroke-width:3.75px;"/>
    </g>
    <g transform="matrix(0.465826,0,0,0.465826,262.186,1912.92)">
        <circle cx="2302.87" cy="838.304" r="176.887" style="fill:none;stroke:rgb(255,0,0);stroke-width:8.05px;"/>
    </g>
    <g transform="matrix(1,0,0,1,-437.008,-177.165)">
        <circle cx="2858.27" cy="1062.99" r="259.843" style="fill:none;stroke:rgb(255,0,0);stroke-width:3.75px;"/>
    </g>
</svg>
